<?xml version="1.0" encoding="UTF-8" standalone="no"?>
<svg
   xmlns:dc="http://purl.org/dc/elements/1.1/"
   xmlns:cc="http://creativecommons.org/ns#"
   xmlns:rdf="http://www.w3.org/1999/02/22-rdf-syntax-ns#"
   xmlns:svg="http://www.w3.org/2000/svg"
   xmlns="http://www.w3.org/2000/svg"
   xmlns:sodipodi="http://sodipodi.sourceforge.net/DTD/sodipodi-0.dtd"
   xmlns:inkscape="http://www.inkscape.org/namespaces/inkscape"
   width="47.445312mm"
   height="50.477333mm"
   viewBox="0 0 47.445312 50.477333"
   version="1.1"
   id="svg103"
   inkscape:version="1.0.2 (e86c870879, 2021-01-15, custom)"
   sodipodi:docname="africa.svg">
  <defs
     id="defs97" />
  <sodipodi:namedview
     id="base"
     pagecolor="#ffffff"
     bordercolor="#666666"
     borderopacity="1.0"
     inkscape:pageopacity="0.0"
     inkscape:pageshadow="2"
     inkscape:zoom="0.35"
     inkscape:cx="-311.76813"
     inkscape:cy="435.39024"
     inkscape:document-units="mm"
     inkscape:current-layer="layer1"
     inkscape:document-rotation="0"
     showgrid="false"
     fit-margin-top="0"
     fit-margin-left="0"
     fit-margin-right="0"
     fit-margin-bottom="0"
     inkscape:window-width="1920"
     inkscape:window-height="1017"
     inkscape:window-x="-8"
     inkscape:window-y="-8"
     inkscape:window-maximized="1" />
  <metadata
     id="metadata100">
    <rdf:RDF>
      <cc:Work
         rdf:about="">
        <dc:format>image/svg+xml</dc:format>
        <dc:type
           rdf:resource="http://purl.org/dc/dcmitype/StillImage" />
        <dc:title />
      </cc:Work>
    </rdf:RDF>
  </metadata>
  <g
     inkscape:label="Capa 1"
     inkscape:groupmode="layer"
     id="layer1"
     transform="translate(-160.72972,-32.969666)">
    <g
       id="africa"
       style="clip-rule:evenodd;fill-rule:evenodd;image-rendering:optimizeQuality;shape-rendering:geometricPrecision;text-rendering:geometricPrecision;fill:#ffcc29;fill-opacity:1"
       transform="matrix(0.00894061,0,0,0.00894061,76.357277,-49.010274)">
      <path
         class="fil0"
         d="m 11427.38,9185.39 c -12.06,20.58 -16.51,15.56 -53.68,-3.09 -24.95,11.86 -3.43,9.87 -32.93,17.95 -102.59,28.1 -37.46,-28.58 -163.53,-4.83 -14.82,2.8 -24.72,-1.79 -41.76,2.14 -57.86,13.34 -120.14,6.02 -175.98,34.13 -17.44,8.78 -17.57,18.76 -29.58,22.6 -14.9,4.76 -16.96,-2.62 -31.75,1.45 l -37.89,10.67 c -13.39,7.93 -8.77,13.56 -29.09,24.86 -26.65,14.82 -57.77,10.42 -90.88,4.21 l -8.44,-24.13 c -15.11,23.4 -20.21,15.33 -46.06,12.15 -35.48,-4.38 -87.3,9.63 -101.75,-39.49 l -4.79,-22.3 c -51.75,15.54 -34.89,7.74 -69.19,65.04 -9.76,16.3 -16.06,28.94 -27.45,42.46 -44,52.27 -65.6,50.73 -131.47,72.31 -21.77,7.14 -72.6,45.06 -80.81,59.08 -11.62,19.89 1.48,23.95 -19.83,44.2 -28.71,27.29 -44.81,45.81 -49.76,90.28 -3.31,29.77 41.15,39.66 -59.55,122.55 -20.32,16.73 -16.81,12.94 -43.96,25.68 -23.99,11.25 -23.5,13.18 -40.12,29.96 -27.37,27.65 -71.81,13.42 -108.18,26.14 -38.62,13.5 -41.46,83.31 -97.06,106.72 -43.62,18.37 -30.28,11.67 -54.39,47.73 -6.01,8.97 -7.78,9.95 -15.04,22.45 -49.08,84.42 19.33,34.62 -86.96,117.4 -19.08,14.85 -43.42,56.82 -57.89,81.29 l -8.67,12.94 c -44.63,71.25 -25.9,23.75 -51.63,55.88 -8.08,10.09 -31.75,89.17 -31.88,103.26 l 14.24,-25.07 12.87,40.61 c 31.35,-0.51 23.95,39.19 17.86,62.7 l -24.22,47.14 c 17.65,33.51 25.83,65.48 17.71,109.85 -8.93,48.7 -25.09,62.84 -41.07,93.75 -29.44,56.93 -6.46,79.02 -61.44,142.33 -16.53,19.03 -23.18,12.56 -44.39,23.99 23.57,10.95 -5.15,-20.47 24.73,6.45 21.23,19.13 34.43,83.37 37.29,106.74 1.29,0.82 3.4,0.22 4.06,2.05 3.69,10.17 1.17,0.57 7.84,3.72 l 10.39,4.97 c -3.36,1.42 -11.32,4.24 -17.73,1.02 -8.93,-4.5 -3.25,-2.64 -7.84,-6.46 -8.81,-7.35 3.15,-4.64 -13.54,-11.06 -6.77,14.42 -8.2,43.04 -7.37,64.82 8.68,5.89 -0.3,0.12 7.57,2.07 12.87,3.19 -0.32,-3.41 13.4,3.3 -1.21,0.79 -3.31,0.1 -3.9,1.86 -0.58,1.72 -3.01,1.47 -3.79,1.89 -5.63,3.09 -7.24,-1.96 -17.83,12.36 10.97,10.68 17.33,10.86 27,24.73 4.55,6.51 3.51,7.96 9.76,17.43 17.74,26.82 31.38,15.32 50.3,9.61 18.14,-5.47 19.25,-1.96 42.23,-1.5 -13.23,4.36 -24.94,2.15 -39.73,9.38 9.02,32.75 8.87,3.2 0.19,35.43 1.59,1.21 12.55,8.86 13.08,9.36 11.24,10.75 16.24,22.95 15.21,38.49 20.42,-6.63 -3.77,-2.99 20.69,-14.28 0.22,20.49 2.18,15.4 8.99,32.25 9.8,24.26 10.68,29.9 37.2,48.8 48.84,34.82 20.86,21.83 43.46,52.58 l 15.61,56.15 c -2.51,12.52 -4.04,21.99 -4.09,37.39 15.35,12.76 14.84,-4.71 23.34,21.81 7.48,23.35 -2.1,24.53 26.64,30.55 l -28.49,7.82 c 13.89,8.33 21.84,8.16 38.2,5.86 5.77,-0.82 6.2,-2 13.78,-1.81 -42.56,16.23 31.09,38.51 45.91,50.61 16.46,13.42 12.92,18.95 32.69,31.37 l 34.45,30.49 c 16.48,11.31 21.11,6.48 39.62,24.47 12.99,12.62 18.28,20.97 30.9,33.63 10.87,10.89 20.13,23.56 31.17,33.25 31.34,27.49 86.91,60.78 128.21,70.71 22.68,5.47 21.64,-3.69 43.3,-13.52 34.46,-15.64 119.34,-44.66 151.63,-44.82 l 42.55,-4.94 c 20.24,-3.85 47.28,-1.2 68.61,1.33 -3.47,-17.33 -11.99,6.2 18.86,10.46 28.91,4.02 10,3.27 25.71,-16.82 7.81,14.74 -10.57,6.12 11.52,15.79 17.29,7.58 5.42,-6.99 10.58,4.78 0.13,0.3 0.4,1.92 0.49,2.25 0.22,0.76 0.06,4.07 0.85,5.68 29.29,5.46 39.62,10.46 54.86,16.81 24.15,10.06 25.42,-5.69 47.16,-14.72 42.65,-17.72 43.12,-9.63 114.11,-41.48 24.37,-10.94 28.72,-14.1 60.05,-12.42 44.33,2.38 18.04,-9.9 45.48,-27.06 34.59,-21.63 128.91,-8.42 170.09,-24.62 l 19.01,-0.58 c 22.06,5.77 47.07,1.85 69.51,10.51 66.87,25.78 64.76,125.83 105.28,152.79 6.32,4.21 4.74,4.51 14.43,7.51 1.49,0.46 6.08,1.31 7.46,1.44 l 11.26,-1.33 c 0.47,-0.02 1.83,-0.17 2.32,-0.17 l 49.86,-3.36 c 14.03,-4.56 17.73,-12.75 21.6,-17.81 19.5,15.07 21.8,-4.91 31.73,1.31 0.37,0.22 1.51,1.57 1.83,1.86 l 54.01,4.34 9.05,-19.39 c 9.32,8.32 11.05,13.49 16.11,22.58 7.39,-6.99 13.94,-6.22 24.93,-7 1.31,22.75 0.12,35.51 18.73,47.1 14.56,9.06 20.83,4.89 33.22,4.03 11.64,-0.81 10.4,-4.35 8.55,6.12 l -2.51,16.16 c 1,10.89 7.43,16.92 14.5,27.38 15.84,23.43 5.77,28.59 -0.03,59.72 l -36.82,108.1 c 7.95,22.02 18.61,1.97 18.66,53.4 -14.14,-7.8 -8.44,-10.08 -23.53,-0.7 l 30.71,32.41 c -24,-0.25 -22.47,4.37 -30.08,-14.24 -1.72,29.9 3.84,66.61 -23.96,86.3 -12.9,9.14 8.66,-6.32 -17.87,1.76 3.83,12.38 5.28,15.84 10.08,25.12 l 14.38,23.61 c 14.15,-1.02 27.17,8.63 33.83,19.45 -30.22,-0.49 -18.82,3.06 -24.48,8.09 5.97,14.07 -8.79,9.45 20.31,12.38 -18.49,9.5 -17.3,-3.91 -7.06,11.64 29.89,45.41 165.09,169.03 183.44,192.51 15.11,19.34 2.47,5.12 11.04,26.91 11.41,29.02 21.14,9.19 27.73,47.54 6,34.95 -1.98,37.1 28.69,53.02 l -20.42,4.14 c 11.38,41.83 39.65,50.98 49.91,93.91 10.93,45.78 37.06,57.97 40.99,110.85 -1.15,0.86 -3.03,0.57 -3.59,2.43 l -13,10.01 c -6.06,5.16 -8.24,8.32 -13.75,12.61 2.18,12.54 19.66,62.53 25.3,74.64 13.09,28.15 26.08,38.61 36.25,65.67 12.74,33.87 5.48,97.92 -21.83,130.23 -12.07,14.27 0.31,3.34 -15.12,12.03 -33.64,18.95 -16.01,23.79 -40.24,45.14 -15.23,13.43 -16.33,31.61 -23.11,52.35 l -12.61,62.36 c -5.21,20.77 -7.4,12.73 -12.85,32.67 -9.93,36.38 -1.48,39.35 -29.21,63.51 12.59,37.59 1.82,71.92 -0.45,107.18 -3.32,51.64 3.85,61.92 26.8,95.75 18.91,27.9 32.3,38.42 48.77,68.94 l 45.42,78.42 c 6.45,15.46 9.89,28.22 16.86,42.13 l 44.69,73.29 c 87.02,106.21 1.44,86.96 54.47,219.18 14.67,36.57 5.94,54.03 16.82,90.37 l 24.04,88.62 c 7,13.87 2.93,5.45 5.56,13.89 28.94,92.69 102.4,92.28 132.16,197.41 24.99,88.25 105.61,153.74 89.21,208.26 -7.94,26.41 -16.62,15.76 -32.23,21.26 4.83,24.25 13.82,34.74 27.9,51.09 35.32,41.05 -10.33,21.32 10.69,64.41 5.2,-10.33 0.06,-19.34 17.61,-16.01 24.07,4.56 -11.34,2.48 29.73,22.34 17.19,8.32 9.59,7.71 20.88,17.1 38.53,32.07 59.07,-15.1 128.26,-15.9 7.63,-0.09 29.98,-0.59 36.84,-2.35 21.61,-5.53 37.32,-25.12 65.28,-24.92 14.15,0.1 18.52,4.64 29.44,5.46 38.55,2.91 2.06,-4.61 40.39,-6.02 38.63,-1.42 59.29,25.24 85.72,6.51 10.84,-7.67 -1.29,-4.13 12.17,-7.36 9.67,-2.32 26.45,3.98 36,6.36 l 4.46,-11.02 c 4.79,-7.99 0.45,-4.49 6.7,-9.12 9.71,-7.19 17.94,-4.49 30.41,-3.41 62.27,5.36 199.53,-99.08 229.2,-134.08 l 37.6,-32.27 c 1,-0.6 2.34,-1.41 3.34,-2.01 41.74,-25 61.05,-69.91 91.9,-106.78 22.92,-27.4 34.39,-53.92 61.15,-73.25 l 22.74,-14.31 c 24.6,-15.3 38.3,-32.54 49.62,-57.84 l 42.98,-145.44 -11.7,-1.66 c -6.34,-3.12 -10.5,-7.94 -16.25,-12.24 0.85,-1.23 2.44,-4.31 2.9,-3.39 0.98,1.99 16.05,-35.75 54.93,-54.21 l 15.6,-5.87 c 43.13,-13.61 102.04,-25.22 133.4,-54.62 10.73,-10.06 31.25,-29.1 27.44,-47.77 l -6.04,-6.76 c -0.29,-0.23 -1.73,-0.78 -2.46,-1.38 15.93,-37.16 23.91,-81.91 21.05,-127.41 -5.92,9.09 -7.35,15.56 -15.27,24.62 0.84,-21.17 7.01,-38.16 2.58,-60.98 -5.17,-26.63 -10.42,-21.08 -12.14,-52.55 -1.77,-32.37 -14.5,-20.62 -21.51,-43.44 -2.35,-7.65 4.63,-36.49 6.38,-56.14 31.44,19.92 71.12,-55.15 98.91,-65.82 36.75,-14.1 20.69,-3.23 62.02,-45.85 l 17.94,-24.92 c 2.19,-3.32 4.21,-6.46 6.68,-9.06 48.81,-51.32 120.93,-51.45 155.94,-69.91 l 50.81,-34.84 c 3.21,-2.48 5.74,-4.94 8.51,-7.54 0.82,-0.77 1.88,-1.95 2.7,-2.73 1.13,-1.08 4.32,-4.32 5.46,-5.41 l 64.81,-80.02 c 2.94,-9.69 1.38,-9.97 1.52,-10.64 1.93,-9.25 21.41,-33.5 18.67,-52.04 -18.6,-41.79 19.37,27.62 -6.29,-6.76 -3.37,-4.52 2.42,9.44 -3.71,-6 -2.92,-7.36 -0.26,-0.79 -1.57,-7.36 l -1.57,-8.65 c -0.09,-0.79 -0.35,-2.34 -0.4,-3.19 l 1,-100.23 c 6.43,-30.87 -7.16,-109.71 2.43,-134.82 8.62,-22.56 19.89,-59.75 -5.97,-76.36 l -48.78,-23 c 3.93,-4.84 3.91,0.57 5.36,-10.76 l -26.23,-97.43 c -23.71,-45.6 15.83,-21.33 4.13,-62.58 -4.81,-16.98 -13.38,-6.51 -5.58,-35.11 11.36,-41.67 39.7,-13.95 -14.97,-68.55 -11.63,-11.63 -21.06,-20.59 -21.97,-42.25 -0.77,-18.42 8.53,-30.21 14.59,-47.26 3.18,-8.93 4.62,-14.67 7.66,-24.82 6.62,-22.13 11.22,-33.36 23.33,-45.46 l 44.07,-90.64 c 11.93,-23.16 1.3,2.57 14.29,-18.32 12.29,-19.77 3.66,-30.62 17.1,-51.53 8.37,-8.68 24.09,-6.27 45.76,-28.31 0.3,-0.31 1.52,-1.15 1.77,-1.42 l -2.75,-23.42 c 59.35,3.28 79.07,-76.48 112.58,-112.4 11.13,-11.95 12.28,-17.84 23.26,-30.26 33.69,-38.12 71.15,-89.09 112.96,-117.9 30.48,-21.02 19.72,-27.76 95.82,-75.52 63.84,-40.06 95.44,-90.3 143.94,-141.06 49.36,-51.69 71.47,-111.58 111.12,-173.03 24.93,-38.63 12.38,-54.11 29.57,-88.63 33.45,-67.17 22.55,-54.6 40.11,-98.47 1.5,-3.76 56.24,-86.08 63.6,-135.25 1.88,-12.59 -0.81,-49.22 1.22,-58.68 5.6,-26.03 17.68,-8.81 36.74,-21.65 -13.18,-7.42 -11.67,-3.21 -26.37,1.63 7.12,-18.53 2.17,-37.54 -1.21,-58.52 -5.09,-31.65 8.23,-38.46 2.18,-56.56 -57.84,-25.58 -45.09,10.87 -71.36,26.54 l -86.91,30.96 c -24.43,3.78 -24.45,-6.54 -47.17,1.58 -15.23,5.44 -16.74,13.65 -43.59,15.11 -24.69,1.34 -22.96,-8.58 -43.81,4.44 -35.13,21.96 -37.38,38.96 -84.2,30.61 -30.99,-5.53 -20.84,-6.46 -40.41,5.97 l -36.76,22.74 c -10.59,5.5 -36.46,8.69 -50.65,7.64 -31.23,-2.33 -55.13,-31.73 -66.87,-50.87 -14.51,-23.63 -2.27,-17.92 -28.1,-31.51 -14.52,-7.65 -34.95,-2.48 -42.96,-8.41 9.32,-13.5 24.91,-17.73 40.38,-27.84 l 14.18,-9.74 c -4.31,-23.23 -11.24,-29.18 -20.65,-41.48 -30.47,-39.84 -6.02,-8.34 -31.42,-22.54 l -41.41,-38.24 c -26.96,-41.59 -30.14,-22.86 -59.48,-53.52 -11.41,-11.92 -17.96,-24.45 -29.73,-34.7 -10.57,-9.22 -30.38,-12.21 -43.15,-21.5 -15.77,-11.46 -1.5,-7.68 -19.34,-12.09 -16.27,-4.02 -15.54,10.1 -29.39,-13.43 -1.15,-1.96 -4.42,-10.95 -4.6,-11.3 -5.77,-10.5 -5.38,-11.63 -21.67,-11.83 -0.92,24.06 8.5,13.09 2.98,29.01 -10.36,-7.33 -9.6,-15.44 -19.18,-28.36 l -15.13,-22.44 c -24.03,-41.36 -30.88,-105.34 -53.94,-144.67 l -28.94,-40.89 c -8.46,-8.59 -13.56,-7.05 -23.69,-12.75 l -20.7,-17.78 c -19.77,-16.4 -31.59,-8.77 -43.44,-26.39 -12.55,-18.66 -29.09,-91.76 -30.81,-114.06 -2.57,-33.4 -4.93,-32.22 -10.61,-55.8 -7.45,-30.96 17.85,4.41 -8.7,-31.66 -18.5,-25.11 -13.13,-40.36 -18.4,-50.22 -2.21,-4.15 -30.89,-22.54 -37.59,-28.87 -13.29,-12.55 -4.43,-8.66 -21.51,-16.33 -28.8,-12.92 -37.69,-18.02 -51.24,-55.82 -1.98,-5.56 -6.81,-23.95 -6.23,-31.55 l 17.53,-19.88 c -55.09,-18.81 -67.51,-82.73 -97.99,-124.86 -17.34,-23.96 -43.24,-54.88 -53.07,-81.38 -6.31,-17 0.69,-10.95 -11.77,-30.55 -10.19,-16.04 -8.56,-7.52 -18.82,-24.28 -23.51,-38.39 7.11,-21.65 -35.23,-56.03 -62.19,-50.48 -30.57,-56.64 -76.08,-106.53 1.33,-17.77 3.21,-17.45 10.67,-30.61 13.42,18.61 10.21,30.01 26.05,47.26 24.04,26.17 17.29,5.77 29.98,45.22 10.44,32.43 12.34,19.28 35.44,39.81 19.51,17.3 15.61,24.96 48.33,33.29 11.68,-23.06 13,-47.54 17.22,-73.6 22.16,-136.74 -8.8,-89.6 -49.44,-202.4 -17.34,5.01 -26.91,10.69 -48.15,14.39 l -121.23,-4.87 4.16,-17.03 c -36.7,4.79 -23.97,1.41 -55.09,-5.63 -0.44,0.47 -0.64,1.01 -0.74,1.79 l -2.19,3.79 c -14.25,16.4 -30.12,3.39 -45.62,8.19 -12.76,3.95 4.93,-4.81 -6.77,4.7 l -8.95,7.63 c -6.12,3.27 -1.02,-4.22 -18.02,7.92 -8.33,5.94 -12.96,12.66 -20.35,17.54 -31.45,20.8 -91.97,-1.45 -129.31,-9.09 l -39.1,-13.06 c -52.58,-15.75 -86.3,-7.26 -136.93,-7.16 -0.98,-1.02 -2.37,-4.12 -2.77,-3.24 l -20.02,-34.07 c -26.22,-1.04 -40.08,6.26 -64.47,-1.74 l -50.22,-12.09 c -1.33,-0.41 -3.17,-1.39 -4.23,-1.77 -35.01,-12.46 27.53,-21.16 -72.3,-46.91 -34.1,-8.8 -69.45,5.55 -101.79,18 -28.24,10.87 -60.2,36.54 -59.97,68.65 0.3,43.41 40.84,46.04 -4.69,91.9 -56.81,57.22 -71.1,2.52 -166.83,-32.94 -37.48,-13.88 -86.13,-10.79 -107.82,-21.03 -37.78,-17.82 -32.51,-47.94 -45.99,-82.18 -14.2,-4.49 -24.45,-4.06 -40.43,-7.57 -26.77,-5.88 -17.05,-8.74 -36.55,-18.3 -25.99,-12.72 -58.78,-16.67 -88.16,-12.39 -40.05,5.83 -71.28,-18.73 -104.23,-31.53 -11.44,-4.44 -15.07,-11.96 -19.51,-28.41 -17.71,2.1 2.13,-2.56 -19.17,7.61 -0.77,-1.03 -1.63,-4.21 -2.01,-3.32 -0.39,0.87 -1.67,-2.59 -2.24,-3.13 -6.54,-6.24 -54.58,-22.38 -46.27,-47.38 6.68,-20.03 99.96,-48.04 73.36,-106.13 -9.12,-19.93 -45.04,-21.65 -29.38,-54.41 10.67,-22.31 41.34,-26.68 38.87,-59.12 -20.49,4.52 -28.82,13.38 -43.05,21.73 -8.41,-8.12 -14.98,-19.95 -13.1,-35.3 -36.53,-9.19 -8.44,3.22 -22.5,-0.26 -13.57,-3.36 1.48,-0.18 -7.35,-11.08 -43.11,8.71 -53.12,26.15 -75.7,29.07 -58.34,7.54 -50.76,-8.74 -90.71,-13.11 z"
         id="path7"
         style="fill:#ffcc29;fill-opacity:1" />
      <path
         class="fil0"
         d="m 14550.33,13100.24 c 14.95,15.82 10.47,56.17 -15.52,72.14 -10.38,6.39 -0.72,-2.1 -13.99,8.04 l -17.61,23.64 c -13.58,-18.47 1.28,-13.63 -23.53,-22.26 -6.95,35.96 2.9,24.88 1.23,55.14 -11.62,6.23 -13.81,4.73 -24.44,12.01 1.77,25.76 11.54,8.22 -2.75,29.95 -16.13,24.53 -16.41,8.98 -16.83,8.71 -35.83,-21.97 22.78,0.55 -8.82,-6.69 -7.07,14.5 -16.01,32.78 -30.74,38.87 -10.36,4.27 -2.57,-4.73 -27.22,14.09 -21.2,16.2 -40.53,22.11 -19.29,41.24 -30.41,2.79 -4.52,5.94 -19.36,-16.92 -39.89,17.91 -17.72,-1.63 -44.39,16.42 -7.74,5.23 7.17,3.46 -16.42,9.15 l -31.38,7.38 c -25.92,11.8 -18.63,3.14 -45.82,8.85 -5.8,76.56 -18.78,42.38 -41.02,93.01 -18.29,41.65 21.54,141.56 14.34,185.45 -7.34,44.76 -21.22,45.85 -57.5,109.47 -14.38,25.23 -16.91,5.49 -30.08,29.05 l -22.55,47.79 c -14.24,55.2 22.05,92.91 17.74,115.8 -8.95,47.68 -27.02,18.96 -0.01,88.89 18.91,48.97 -2.21,28.79 54.52,57.18 14.55,7.28 24.37,25.94 50.33,20.79 15.57,-3.09 25.55,-18.39 49.12,-25.73 75.1,-23.32 53.31,42.13 139.12,-145.28 17.84,-38.96 23.61,-68.04 45.2,-105.57 9.79,-17.02 16.45,-33.13 24.35,-50.51 10.14,-22.33 11.62,-33.42 20.76,-54.74 8.66,-20.18 18.5,-32.16 25.31,-49.46 8,-20.29 10.67,-34.07 21.07,-54.03 8.56,-16.43 16.46,-36.41 21.51,-47.12 5.78,-12.24 17.11,-24.38 24.71,-46.61 31.62,-92.56 -8.23,-60.8 36.45,-112.17 8.13,-9.35 0.94,0.73 4.66,-6.98 25.45,-52.68 -12,-69.44 7.53,-109.6 19.94,4.28 10.58,-3.14 19.79,17.97 2.2,5.06 0.94,5.27 4.12,11.67 l 9.15,12.69 c 20.02,-19.25 31.88,-44.57 21.6,-75.23 -17.94,-53.5 3.77,-136.03 -31.5,-183.79 -15.52,-21.03 -4.53,-17.41 -17.58,-36.27 -14.72,-21.27 -8.04,-4.98 -12.77,-21.5 -3.24,-11.3 3.21,-1.95 -3.28,-10.41 -11.06,31.42 -16.48,26.99 -38.17,45.48 z"
         id="path9"
         style="fill:#ffcc29;fill-opacity:1" />
    </g>
  </g>
</svg>
