<svg xmlns="http://www.w3.org/2000/svg" width="156.927" height="198.723" viewBox="0 0 41.52 52.579"><path class="prefix__fil0" d="M18.624 21.454c-.723.393-.515.714-.45 1.384.02.209-.139.016.065.308.25.358.466-.076 1.17 1.757l.892 1.972c.473.85.11 1.256 1.05 1.901.407.28.82.459 1.216.727.444.3.586.661 1.027.882-.008.762.136 1.312.066 2.134-.017.2-.044.313-.086.499-.188.833-.05.777-.108 1.52a9.712 9.712 0 01-.365 1.879c-.4 1.351.173 2.224-.45 3.809-.7 1.779-.834 1.179-.566 2.558.067.342-.133.386-.236.715-.007.023-.324 1.557-.178 1.834.684-.23.03-.182.51-.48.164.278.035.385-.01.813-.812-.083-.54-.235-.74.663-.143.644-.48.708-.53 1.064.25.1.195-.018.345.052.35.164.066-.05.182.152-.207.736-.428-.17-.507.803l.292 2.01c.102.29.227.225.442.65.357.706-.156-.233.103.209.032.055.081.13.127.186.428.528 2.053 1.176 2.83 1.12l-.01-.406c.512.03 1.105.237 1.502-.092-.206-.121-.323-.063-.593-.176a5.712 5.712 0 01-.456-.259c-.56-.363-.44-.515-.656-.742.057-.272.075-.206-.047-.408-.61-1.387.179-.699.514-1.533.43-1.072.934-.288.952-1.362-.394-.248-.635-.079-.905-.611.132-.571.428-.625 1.018-.721.06-.335.122-.843.321-1.022.427-.384.615.047.612-.599l-.567-.166c-.016-.037-.06-.02-.086-.037l-.038-.59c.923.103.425.28 1.368-.01l.183-1.075c.64-.127 1.175-.123 1.726-.319.45-.16.823-.628.967-1.06.014-.31-.156-.139-.287-.626-.044-.165.029-.043-.05-.253-.196-.528-.382-.031-.573-.656.495.16.976.415 1.53.413.836-.004.757-.335 1.15-.785.418-.374.198-.361.462-.76.166-.252.356-.284.624-.592.471-.54.381-.957.935-1.507.705-.7.015-1.113.379-1.868.29-.603.806-.87 1.415-1.115l.327-.193c.658-.445 1.577.028 1.98-1.095.395-1.106.488-.497.669-1.75.09-.62.18-.248.274-.922.114-.816.04-1.516.154-2.342.536-.42.441-.38.73-.98.577-1.196 1.83-1.14 1.012-3.838-.564-.146-.718.013-1.148-.379-.377-.343-.372-.444-.781-.746-.498-.367-.545-.192-1.235-.284-.562-.075-.625-.258-1.348-.295-.216-.466-.036-.513-1.224-.909-.34-.113-.549-.092-.884-.249-.342-.16-.474-.348-.764-.434.046-1.119.132-.47-.338-1.195-.334-.515-.002-.788-.431-1.196-.44-.414-.65-.638-1.353-.844-.263-.164-1.152-.112-1.487-.067-.166-.394-.378-.355-.616-.731-.252-.401-.152-.443-.643-.708-.153-.12-.333-.166-.42-.264-.244-.274.027-.217-.317-.5-.31-.255-.515-.109-.65-.4-.004-.008-.015-.178-.036-.224-1.088-.117-.868.254-1.333.28-.732.042.315-.21-1.518-.222-.288-.496.104-.218-.46-.52-.028-.014-.114-.05-.14-.065-.185-.11-.059-.028-.177-.133-.343-.304.173-.047-.24-.244-.098.185.024.185-.16.425-.14.18-.419.232-.663.249-.118-.195-.034.03-.075-.277.302-.261.262-.032.383-.42-.574-.397-.345.13-.991.435l-.762.234c-.08.036-.09-.078-.365.266-.386.481.116.256-.393.833-.082.092-.192.211-.28.32-.048.06-.087.115-.1.128-.138.136.124.065-.131.077-.063-.162-.042-.096-.158-.23-.843-.98-1.253-.295-1.905-.054l-.813-.536-.411-.611c-.135-.522.084-.803.086-1.194.001-.425-.002-.347.073-.742.07-.373.155-.505-.12-.68-.217-.388-.412-.442-.947-.445-.36-.002-1.137.028-1.473.084l-.137-.172c-.01-.012-.033-.049-.052-.072.296-.267.343-.923.507-1.378.076-.3.102-.755.19-.994.127-.344.428-.405.231-.731l-.14-.072c-.092-.027-.078-.043-.254-.06-.355-.033-1.199.161-1.35.382-.232.525-.016.97-.579 1.24-.221.105-1.135.322-1.43.41l-.24-.172c-1.028-.645-.148.228-.986-1.045-.904-1.373-.372-2.452-.206-3.38-1.652-.324-1.181-1.55-2.07-2.184-.63-.448-.694.056-.977.285-.42-.084-.52-.12-.727-.522-.24-.466-.75-1.1-1.313-1.114-.893-.02-.326.838-2.979-.087C.911.008 1.312-.07 0 .056c.064.337.445 1.065.602 1.421.264.602.673.456.89 1.12l-.37.407c.463.485.53.355.962.65.863.587-.134.785.708 1.332.88.571.495.55.859.839.238-.205.308-.327.05-.625-.533-.613-.167.267-.52-.699-.566-1.552-.607-.97-1.022-1.831-.54-1.124-1.1-.885-1.009-2.078 1.282.08.583.957 1.79 2.11.943.901.889.903.944 1.499.683.289 1.643 1.498 1.91 2.171.377.945-.242.672.096 1.295.357.657 1.811 1.208 1.905 1.27l2.119 1.048c.958.35.87-.263 1.533-.127.44.09.772.713 1.152.95.266.343.255.35.801.381.297.184.376.235.761.346.495.142.48.01.782.326.198.274.662.713.807 1.04.114.993.036.56.73.892.273.13.337.26.407.52.393.49.4.1.85.357.362.208.374.556.934.397.034-.378-.036-.132-.16-.56.441-.162.247-.246.615-.379.721.414.1.592.721 1.089.16.39.292 1.84.13 2.27-.21.562-.443.007-.752 1.09-.24.374-.033-.055-.395.326-.183.192.017-.112-.125.189 0 0-.093.306-.123.385-.014.036-.128.269-.162.345-.102.23-.213.49-.123.882.123.542.273.092.328.75zm4.352-12.53c.022-.016.049-.074.059-.056.016.033.092-.24.628-.325.277-.043 1.34.131.78-.358-.11-.096-.304-.16-.462-.267-.261-.177-.222-.35-1.103-.33.008.665-.141.843.098 1.335zM16.283 6.44c.69-.021.72-.465 1.417-.461.006.011.004.022.005.039a.164.164 0 00.008.04c.1.218-.034.129.239.223.646.224 2.01.276 1.382.868l.787.026c-.03.104-.183.241-.079.438l1.29-.056c.352-.096.234-.104.314-.177-.643-.595-.843-.227-1.78-1.145-.265-.26-1.441-.715-2.352-.586-.73.103-.852.213-1.23.79z" clip-rule="evenodd" fill="#ffcc29" fill-rule="evenodd" image-rendering="optimizeQuality" shape-rendering="geometricPrecision" text-rendering="geometricPrecision"/></svg>