<?xml version="1.0" encoding="UTF-8" standalone="no"?>
<svg
   xmlns:dc="http://purl.org/dc/elements/1.1/"
   xmlns:cc="http://creativecommons.org/ns#"
   xmlns:rdf="http://www.w3.org/1999/02/22-rdf-syntax-ns#"
   xmlns:svg="http://www.w3.org/2000/svg"
   xmlns="http://www.w3.org/2000/svg"
   xmlns:sodipodi="http://sodipodi.sourceforge.net/DTD/sodipodi-0.dtd"
   xmlns:inkscape="http://www.inkscape.org/namespaces/inkscape"
   width="68.169441mm"
   height="41.2724mm"
   viewBox="0 0 68.169441 41.2724"
   version="1.1"
   id="svg103"
   inkscape:version="1.0.2 (e86c870879, 2021-01-15, custom)"
   sodipodi:docname="asia.svg">
  <defs
     id="defs97" />
  <sodipodi:namedview
     id="base"
     pagecolor="#ffffff"
     bordercolor="#666666"
     borderopacity="1.0"
     inkscape:pageopacity="0.0"
     inkscape:pageshadow="2"
     inkscape:zoom="0.35"
     inkscape:cx="-58.659216"
     inkscape:cy="121.95668"
     inkscape:document-units="mm"
     inkscape:current-layer="layer1"
     inkscape:document-rotation="0"
     showgrid="false"
     fit-margin-top="0"
     fit-margin-left="0"
     fit-margin-right="0"
     fit-margin-bottom="0"
     inkscape:window-width="1416"
     inkscape:window-height="1040"
     inkscape:window-x="26"
     inkscape:window-y="0"
     inkscape:window-maximized="0" />
  <metadata
     id="metadata100">
    <rdf:RDF>
      <cc:Work
         rdf:about="">
        <dc:format>image/svg+xml</dc:format>
        <dc:type
           rdf:resource="http://purl.org/dc/dcmitype/StillImage" />
        <dc:title></dc:title>
      </cc:Work>
    </rdf:RDF>
  </metadata>
  <g
     inkscape:label="Capa 1"
     inkscape:groupmode="layer"
     id="layer1"
     transform="translate(-121.35358,-115.89896)">
    <path
       class="fil0"
       d="m 148.23974,129.74872 -1.7e-4,8e-5 -0.0104,9.9e-4 0.0106,-10e-4 -0.006,0.002 0.006,-0.002 1.7e-4,-8e-5 z m 34.74,1.61932 c -0.63389,-0.099 -0.80296,0.002 -1.1883,0.3629 l 0.15834,0.81109 c 0.6574,-0.1359 0.10684,-0.11319 0.46768,-0.46196 0.0939,-0.091 0.42101,-0.19088 0.55968,-0.26992 l 0.003,-0.44211 c 0.33938,-0.10058 0.14394,0.0277 0.36611,-0.21297 l 0.0245,0.13313 c 0.0322,0.21207 -0.16728,0.42656 0.60501,0.57193 l 0.41771,-0.90917 c 1.32607,0.30514 0.4861,-0.13849 1.38311,0.17407 0.12329,-0.85847 0.15163,0.0599 0.30353,-0.73429 0.0435,0.50094 -0.0563,0.29191 0.24712,0.35807 0.44998,-0.97086 -0.0873,-0.42763 0.2659,-1.23219 0.20429,-0.46563 0.0754,-0.47269 0.20223,-0.87037 0.24113,-0.75781 0.71498,-0.78829 0.21932,-1.99 l -0.3199,-0.63818 c -0.009,-0.0275 -0.0208,-0.11283 -0.0286,-0.14144 l -0.0333,-0.14574 c -0.0684,-0.19007 -0.13697,-0.073 -0.20751,-0.33259 0.21386,0.0296 0.59598,0.0402 0.8406,0.0999 0.40572,0.0991 0.2759,0.17613 0.73474,0.34913 0.51229,-0.32731 -0.0651,-0.2084 0.56799,-0.54779 l 0.95432,-0.43362 -0.35869,-0.8693 c -0.68852,0.48226 -1.20851,-0.24863 -1.6795,-0.71918 -0.26249,-0.2624 -0.0424,-0.25212 -0.47465,-0.22119 0.0238,0.56541 0.31006,0.34422 0.0867,1.01029 -0.23916,0.71364 -0.23237,0.6195 -0.86438,0.54368 0.0785,0.96737 -0.15118,0.11766 -0.17371,0.83979 -0.01,0.31927 0.16048,0.4068 0.17917,0.72669 0.0272,0.46313 -0.22459,0.39732 -0.33537,1.00537 l -0.0135,0.1317 c 9e-5,0.0143 0.005,0.0469 0.007,0.0611 0.12454,1.40314 -0.3663,1.3394 -1.38562,2.10471 -0.0133,-0.0175 -0.0147,-0.0532 -0.0171,-0.064 -0.002,-0.0105 -0.0129,-0.051 -0.0154,-0.0643 -0.003,-0.0136 -0.01,-0.0511 -0.0127,-0.0662 l -0.0712,-0.3469 c -0.44963,0.2996 -0.1266,0.17988 -0.38642,0.66724 -0.0645,0.12078 -0.34189,0.49933 -0.42789,0.62173 -1.15164,-0.0959 -2.51992,0.65284 -2.78027,1.13617 0.67511,0.1637 1.60797,-0.0494 2.1386,-0.29522 l 0.0427,0.29996 z m -14.06627,10.21661 c 0.35414,-0.34949 0.69469,-0.67635 0.64838,-1.19008 -0.75218,0.124 -1.62907,0.19231 -1.37337,1.16031 z m 11.44792,-8.97548 c 0.10201,0.29379 0.0843,0.25419 0.0907,0.65732 0.50756,0.0506 0.12204,0.043 0.56683,0.17058 0.47904,-0.39767 0.94118,-1.84721 0.005,-1.84873 -0.31301,-5.4e-4 -0.62977,0.19025 -0.82897,0.36978 2.7e-4,0.61386 0.0747,0.3848 0.16692,0.65096 z m -4.74434,15.56042 c 0.57363,-0.27153 0.51373,-0.48986 1.22692,-0.51659 -0.13491,0.41002 -0.28082,0.552 0.15325,0.8912 0.26339,0.20573 0.36889,0.21297 0.63031,0.21967 l 0.15449,-0.0293 c 0.44462,-0.82451 -0.60393,-0.1848 -0.003,-0.90953 0.2692,0.22933 0.11381,0.20438 0.34144,0.49039 0.39741,-0.82262 -0.0617,-0.62146 0.0279,-1.72241 -0.55378,0.0896 -0.86858,0.21654 -1.13036,0.67314 -0.5165,-0.16862 -0.34636,-0.27751 -0.87422,0.0538 -0.43192,0.27108 -0.40322,0.31248 -0.52696,0.84963 z m -12.38542,0.1958 c 0.0712,0.30952 0.0907,0.22289 0.1738,0.51328 0.052,0.18123 0.0639,0.30246 0.11444,0.47153 0.35432,1.18588 0.5714,1.2583 1.01244,1.52956 0.45928,0.28252 0.33536,0.49218 0.96004,0.22673 0.0553,-0.55941 -0.0898,-0.34707 -0.20152,-0.72776 -0.14493,-0.49388 0.12016,-0.24551 -0.0351,-0.79357 -0.027,-0.0961 -0.56898,-0.95549 -0.88396,-1.11534 -0.24497,-0.27064 -0.42771,-0.28584 -0.90398,-0.36863 -0.0523,-1.02504 0.25668,-0.69736 -0.66938,-1.40278 6.2e-4,-0.11658 0.38292,-2.14521 0.42271,-2.25643 0.65454,0.0887 0.0269,0.14958 0.80242,0.44873 0.45633,0.17604 0.29969,0.0211 0.73277,0.4338 0.0342,0.54046 0.29477,0.57613 0.71391,0.64614 0.34966,0.40456 0.14421,-0.0898 0.3148,0.43022 0.0893,0.27269 0.0412,0.34484 0.0454,0.63228 0.5722,-0.0145 0.73233,-0.24488 1.03622,-0.60743 0.33867,-0.40393 0.59768,-0.33589 1.02477,-0.60018 0.96362,-0.59714 0.40743,-1.49469 0.20117,-2.34476 -0.15459,-0.6372 -0.40027,-0.51892 -0.75781,-0.98284 -0.22038,-0.28584 -0.46348,-0.65714 -0.62119,-1.02084 -0.38463,-0.887 0.703,-1.83694 1.27198,-1.82425 0.94413,-0.25936 0.66742,-0.42432 0.74064,0.76389 0.86491,-0.5089 0.14403,-0.0579 0.43067,-0.63738 0.22566,-0.28529 0.8557,-0.0609 1.42692,-0.79052 l 0.15047,-0.19446 c 0.16174,-0.19822 0.002,-0.0262 0.16871,-0.19294 0.20832,0.46268 0.27376,0.45838 0.81467,0.37023 0.35476,-0.0577 0.79303,-0.12839 1.01422,-0.30291 0.0267,-0.0213 0.25981,-0.30121 0.31954,-0.36406 l 1.03103,-0.957 c 0.69647,-0.72509 0.17962,-0.72777 1.11918,-1.90382 0.015,-0.0186 0.0401,-0.0421 0.0559,-0.06 0.0785,-0.0889 0.32687,-0.1789 0.51999,-0.86947 0.0508,-0.18168 0.0603,-0.17238 0.0417,-0.38391 -0.47626,-0.0532 -0.55959,0.17219 -0.9249,-0.0779 0.28413,-0.21154 0.54546,-0.083 0.69575,-0.42969 0.16424,-0.37917 -0.0904,-0.34994 -0.31408,-0.54931 0.33134,0.0284 0.27841,0.0935 0.48959,-0.0682 -0.56996,-0.43997 -0.64024,-0.69629 -0.72589,-1.14663 -0.0491,-0.25722 -0.0605,-0.47922 -0.25838,-0.65088 l -0.60662,-0.29692 c 0.15503,-0.30988 0.15717,-0.27081 0.37327,-0.52928 0.28404,-0.33974 0.0967,-0.17327 0.41046,-0.40823 0.84811,-0.63496 0.68592,-0.31515 1.19429,-0.57524 -0.20009,-0.33169 -0.12231,-0.23057 -0.49192,-0.32543 -1.62424,-0.41673 -0.41788,0.14349 -1.63273,0.0862 -0.77712,-0.86679 -0.74028,-0.69817 -0.59786,-1.02844 0.26706,-0.54189 0.0721,-0.15458 0.6119,-0.36236 0.8718,-0.33554 0.96451,-1.09308 1.60591,-1.14958 0.0673,0.87412 -0.28297,0.39222 -0.265,1.4338 0.74028,0.0816 1.15647,-0.43469 1.52768,-0.73831 0.25114,0.32302 0.26947,0.17541 0.66411,0.30112 -0.004,0.99357 -0.17434,0.66589 -0.25078,1.15933 0.54457,0.0354 1.11319,0.10621 1.52482,-0.0321 -0.30523,0.27653 -0.20787,0.17711 -0.65437,0.15271 0.006,0.0348 0.0801,0.40474 0.0807,0.41046 l 0.0568,0.57354 c 0.21556,0.91927 -0.35172,0.70541 0.12723,1.37506 0.29888,-0.072 0.40894,-0.16066 0.7122,-0.25006 0.25928,-0.0766 0.30792,-0.0649 0.62147,-0.16254 0.22378,-0.74163 0.39687,-2.0069 -0.53796,-2.35112 0.0257,-0.7055 -0.13518,-0.17818 -0.33554,-0.83773 0.31703,-0.39688 0.8127,-0.43559 0.99169,-0.7672 0.38954,-0.72159 -0.17792,-0.35056 0.70121,-1.08297 l -0.13536,-0.3325 c 0.18311,0.11175 -0.0276,0.0339 0.30962,0.10147 -0.0112,-0.45355 0.14126,-0.62217 0.19311,-1.10828 l -0.0175,-0.74081 c 0.039,-0.68933 0.8667,-0.19419 1.06724,-0.18257 0.34824,-0.70354 1.09254,-2.14646 0.93447,-2.93744 -0.23397,0.0472 -0.71113,0.21189 -0.94573,0.37291 -0.48664,0.33358 -0.11865,0.42897 -0.95558,0.33796 -0.32776,-0.37282 -0.11417,-0.22879 -0.34627,-0.68584 l -0.29522,-0.41216 c -0.015,-0.0221 -0.0322,-0.0514 -0.0466,-0.074 -0.33357,-0.51471 0.14922,-0.23826 -0.55163,-0.497 -1.03237,-0.38123 -0.63791,-0.26214 -0.81154,-0.69281 -0.14162,-0.35074 -0.0634,-0.14484 -0.20546,-0.36987 -0.36299,-0.5748 0.035,-0.45911 -0.65883,-1.67217 -0.48869,-0.85427 -2.19796,-1.67976 -3.72904,-0.1797 0.10139,0.27957 0.27269,0.22566 0.41091,0.33482 -0.009,0.49925 -0.85141,2.2474 -1.42191,2.39707 -0.38937,0.1021 -0.45499,-0.0897 -0.83479,-0.14976 -0.21842,-0.14841 -1.21413,-0.50532 -1.39911,-0.46491 -0.45946,0.10049 -0.39554,0.47761 -1.19724,0.67859 -0.55244,0.13858 -0.75584,0.37739 -1.39027,0.19259 -1.65973,-0.48307 -1.52276,-1.26179 -2.42782,-1.12858 -0.39517,0.0581 -1.00841,0.40823 -1.51901,0.0756 -0.45418,-0.29593 -0.16147,-0.64748 -0.92338,-0.93966 l -1.31338,-0.427 c -0.60948,0.56791 -0.38543,0.60009 -0.56728,1.52249 l -0.14153,0.47493 c -0.28556,0.2338 -1.9934,-0.59276 -1.99429,-0.59294 -1.38929,-0.39509 -1.15522,-0.33161 -2.06046,0.001 -0.76996,0.28279 -0.53876,0.0753 -0.822,0.82433 l -0.57255,-0.002 c -0.30559,0.99357 -0.8533,0.76057 -1.2398,1.05812 0.0716,0.51936 0.25839,0.40966 0.2726,1.01431 -0.67323,0.23344 -0.62209,0.0554 -1.4963,0.11659 -0.3806,0.75387 -0.53501,0.62637 -0.32982,1.53519 -1.05597,0.0994 -0.61216,-0.21207 -1.36228,0.35288 0.0641,0.35772 0.23451,0.45642 0.26589,0.82621 0.0467,0.55074 -0.0922,0.27009 -0.27778,0.80778 -0.29817,0.86491 -0.95924,1.09907 -1.71552,1.43237 -0.0255,0.0114 -0.0554,0.0257 -0.0801,0.038 -0.0242,0.012 -0.0513,0.0315 -0.0748,0.0442 -0.30147,0.16281 0.0315,0.1266 -0.3856,0.18552 -0.14708,0.0207 -1.40404,-0.30229 -1.38625,1.19071 0.65768,0.19419 0.54243,-0.18811 0.6659,0.6878 -0.0312,0.0248 -0.0776,0.0383 -0.10782,0.0514 l -0.62772,0.24005 c -0.32043,0.0624 -0.19831,0.0599 -0.50828,0.16782 -0.19642,0.0683 -0.34591,0.11703 -0.58051,0.16602 -0.19133,-0.42441 -0.0431,-0.48413 -0.46536,-0.87904 -0.3409,0.37605 -0.66098,0.65928 -1.28512,0.84462 -0.78803,0.23434 -0.32624,-0.40831 -1.61521,-0.24658 -1.23264,0.15467 -0.27162,1.43354 -2.51634,1.52598 l -0.16647,-1.05588 c -0.3401,-0.14395 0.11623,0.0814 -0.27296,-0.0624 -0.31203,-0.11542 -0.18498,-0.16138 -0.46831,-0.35905 -0.79044,-0.55173 -0.83487,0.17818 -1.58776,-0.70917 -0.37166,0.0543 -0.22977,0.0862 -0.70103,0.20206 -0.35271,0.0864 -0.41413,0.0662 -0.6558,0.26848 -0.4793,0.40117 -0.19133,0.64239 -1.2136,0.68548 -0.72043,0.0304 -0.91051,-0.35414 -1.28905,-0.57944 -1.1832,-0.70381 0.19526,-0.25919 -1.03112,-0.82057 -0.0801,-0.23281 0.16719,-0.0231 -0.22906,-0.69942 -2.40744,1.00358 -0.74046,0.0269 -1.98392,-0.13429 l -0.13653,-0.21467 c -0.16996,-0.31918 -0.32338,-1.02611 -0.58158,-1.15897 -0.0857,-0.0441 -0.86554,-0.0309 -1.30891,0.27922 -0.79974,0.5587 -1.40251,0.36468 -2.34593,0.004 -0.25042,-0.0958 -0.39302,-0.12481 -0.62038,-0.22173 -2.10176,-0.89638 -1.88638,0.23523 -2.72063,0.41243 -0.28807,0.0613 -0.13429,-0.0623 -0.49531,-0.0367 -2.7e-4,0 -0.49111,0.0914 -0.53098,0.0912 -0.48968,-0.004 -0.58213,-0.30183 -0.65508,-0.8152 l -0.8634,0.004 -0.16111,1.50962 c -0.0293,0.43577 0.10228,0.17247 0.21109,0.70068 0.0891,0.43201 -0.0176,0.23701 -0.23219,0.60751 0.15459,0.1443 0.18409,0.1173 0.26178,0.18892 0.27287,0.25221 0.3646,0.43657 0.2363,0.74725 l 0.49487,-0.085 c -0.18087,0.43773 -0.21342,0.075 -0.21556,0.30774 0.2084,0.0915 0.4861,0.003 0.77506,-0.0162 l 0.28386,0.41243 c 0.26903,-0.0967 0.53939,-0.14528 0.56577,-0.44721 0.002,-0.0277 0.006,-0.0432 0.0159,-0.0619 0.9216,-0.0299 0.6355,0.21931 1.16371,0.64953 l 1.66063,-0.67707 c 0.20841,0.21618 0.21279,-0.10023 0.0913,0.78212 l 0.35584,-0.0404 c -0.17881,0.1317 -0.36066,0.16504 -0.27913,0.55334 0.13814,0.65606 -0.14492,0.007 0.47001,0.36298 -0.11864,0.725 -0.34564,0.16478 -0.36352,1.24042 l 0.0708,0.0397 c -0.0251,0.002 -0.087,0.009 -0.27225,0.003 -0.3502,0.71615 -0.28842,1.28101 -0.2236,2.15469 -0.0667,0.0604 -0.0364,-0.0338 -0.1266,0.16138 l -0.099,0.5899 c 0.43228,0.2819 0.19088,-0.051 0.49155,0.31918 l 0.79938,1.28968 c 0.24194,0.49934 0.05,0.49352 0.51981,0.88244 1.08977,0.90247 0.33661,0.95289 0.85141,1.93332 0.20501,0.39008 0.39518,0.35521 0.698,0.703 0.5342,0.61422 0.54663,1.23756 1.29281,1.50712 -0.23666,0.40063 0.1679,2.07574 0.46196,2.54905 0.62164,-0.24381 -0.0581,-0.0449 0.38042,-0.31229 0.11024,-0.0674 0.0364,-0.0178 0.23523,-0.0974 0.16648,-0.0665 0.0299,0.0693 0.25946,-0.0959 0.44792,-0.32222 -0.13161,-0.3494 0.50657,-0.7756 -0.42244,0.47082 -0.0973,0.50649 -0.37479,0.78875 -0.39258,0.39946 -0.50166,-0.17202 -0.71462,0.50067 l 0.39911,0.13214 c 0.15914,0.009 0.24658,-0.0303 0.39902,-0.0749 0.41073,-0.12043 0.36182,-0.12419 0.6456,-0.29844 0.7401,-0.45436 0.73501,-0.18856 1.44587,-0.43871 0.10434,-0.0367 0.73546,-0.50488 1.13171,-0.70747 0.22977,-0.11757 0.36629,-0.21065 0.54832,-0.37971 l 0.40877,-0.44426 -0.1519,-0.37399 0.22056,0.3579 c 1.6913,-0.1376 1.19438,-0.14779 1.57042,-0.51498 0.12794,-0.12499 0.0265,-0.0439 0.20188,-0.15745 0.74797,-0.48297 0.50291,-0.4582 1.10274,-0.65007 l -0.0272,-0.85249 c 0.65454,-0.0397 0.46527,-0.008 0.70022,-0.54376 0.13921,-0.31784 0.33251,-0.43693 0.32866,-0.87145 -0.50067,-0.9587 -1.54851,-0.55467 -1.76943,-1.60528 0.21993,-0.36639 0.16441,-0.29379 0.14617,-0.76451 -1.23997,0.27331 -0.50469,1.58275 -2.73511,1.44042 -0.74359,-0.89576 -0.0606,0.10103 -0.28198,-1.09871 -0.7815,0.25033 -0.19661,-0.0152 -0.32419,0.26366 -0.0118,0.026 -0.0273,0.19088 -0.0305,0.2109 l -0.0235,0.14118 c -0.42361,-1.39224 -0.67064,-1.70838 -1.63193,-2.66019 0.056,-0.23264 -0.031,-0.1452 0.11936,-0.27493 1.23791,-0.80698 1.38507,0.80922 1.86662,1.51472 0.41296,0.0978 0.61887,0.0622 0.94359,0.13679 1.69558,0.38901 1.90935,-0.74976 2.24847,0.2887 0.17059,0.52213 -0.11086,0.41466 0.50971,0.54618 1.92822,0.40858 1.05919,0.47018 2.68343,0.21743 0.70202,0.097 1.15066,-0.0959 1.74601,-0.0981 0.292,0.32669 0.12016,0.33698 0.42307,0.61923 0.17309,0.16138 0.46098,0.29567 0.63827,0.40224 0.27752,1.28208 1.3664,0.50881 1.36711,0.50836 -0.0749,0.32419 -0.0112,0.13572 -0.24667,0.2912 l -0.32356,0.15342 c 0.23988,0.78561 1.32652,1.64132 1.7697,0.26661 0.007,-0.0228 0.0227,-0.0652 0.0288,-0.0835 l 0.0666,-0.15637 c 0.19151,0.33492 0.28637,1.85866 0.35289,2.53672 0.13661,1.39438 0.52043,1.71329 0.68154,2.10256 l 1.26527,3.03507 c 0.15593,0.34457 0.31069,0.60197 0.72553,0.70148 l 0.73376,-0.80608 c 0.28977,-0.3705 0.64158,-1.89818 0.67609,-2.13323 0.0699,-0.47779 -0.0651,-0.87439 0.0161,-1.36443 0.79384,-0.41127 0.60251,-0.15092 1.19706,-0.892 0.5089,-0.63371 0.55423,-0.21932 1.57301,-1.47234 0.52633,-0.64748 -0.0539,0.1249 0.54207,-0.2659 0.33652,-0.22056 0.56987,-0.77256 0.6557,-1.30658 0.56988,0.10121 0.0964,-0.22307 0.49236,0.0502 l 0.4254,0.0343 c 0.11489,-0.36942 -0.0334,-0.0227 0.10863,-0.0946 0.0155,-0.008 0.0686,-0.02 0.0884,-0.0294 l 0.10577,-0.0546 c 0.41725,-0.22718 0.023,-0.17631 0.71596,-0.22101 0.24202,0.37336 0.20993,0.87019 0.45186,1.21431 0.30121,0.42817 0.58758,0.25901 0.85231,0.65436 0.85713,1.27923 0.12257,1.81173 0.11712,2.19886 1.34637,0.0937 1.56863,-0.49969 1.92491,-0.61762 0.23907,0.51113 0.24471,1.35933 0.57363,1.74288 0.25266,0.29442 0.33671,0.0654 0.40921,0.77488 0.0335,0.32964 0.0474,0.76934 0.0131,1.05821 -0.0807,0.5359 -0.2169,0.84892 -0.14663,1.38821 0.20742,0.21672 0.32481,0.2541 0.51981,0.51918 0.20474,0.27815 0.11623,0.25231 0.41967,0.52911 z m 13.75066,-3.70722 c -0.0682,-0.3562 -0.007,-0.57587 -0.30229,-0.67153 -6.2e-4,-1.8e-4 -1.57819,-0.092 -1.09594,-0.91382 0.0326,-0.0556 0.54145,-0.58856 0.55736,-0.60206 -0.18319,-0.56183 -0.26527,-0.2912 -0.25945,-1.09076 l -1.0102,-0.0701 -0.2769,1.28897 c -0.14716,0.0382 -0.11461,0.005 -0.21797,0.064 0.0127,0.36388 0.0234,0.52463 0.19017,0.7629 0.27403,0.39133 0.21583,0.32911 0.50416,0.18552 -0.30031,0.74895 0.12678,0.42638 0.45472,0.51221 0.45856,0.12034 0.0885,0.19606 0.53322,0.27394 0.67859,0.11864 -0.0443,0.22298 0.92312,0.2608 z m -44.17332,-2.49408 -9e-5,-0.003 v 0.003 l 0.001,0.001 -0.001,-9.9e-4 z m 0.004,-0.0583 1.8e-4,-7.1e-4 h -0.0674 l 0.007,0.007 0.006,0.006 0.001,0.001 0.007,0.007 0.004,0.004 0.002,0.002 0.006,0.006 0.003,0.003 0.003,0.003 0.006,0.005 0.002,0.002 0.003,0.003 0.005,0.004 9.8e-4,8e-4 0.0112,-0.0527 z m 0.0481,0.0817 c -0.002,7.1e-4 -0.004,8.9e-4 -0.007,8e-4 0.002,9e-5 0.005,-9e-5 0.007,-8e-4 z m 38.36147,13.74002 c -0.59276,-0.43407 -2.09138,-0.0338 -2.79188,-0.17783 -0.35771,-0.0735 -0.98284,-0.34851 -1.27252,-0.36603 -0.67099,-0.0404 -0.58766,0.2962 -1.01645,0.55584 0.23719,0.15637 0.30299,0.11274 0.55664,0.23326 0.53643,0.25552 4.54692,0.89227 4.75327,0.892 -0.0415,-0.24282 -0.11891,-0.40984 -0.12731,-0.75593 -0.57613,-0.10192 -0.52347,0.13072 -0.87243,-0.15279 0.37783,-0.12454 0.42862,0.0361 0.77068,-0.22861 z m -44.09383,-23.2818 c -0.0772,-0.0373 -0.11677,-0.0619 -0.13867,-0.0779 z m 3.74388,9.43789 c 0.34824,-0.33259 1.46528,-0.33474 1.87324,0.0215 l 0.0672,7.1e-4 -1.94038,-0.0222 z m 45.7094,10.13489 c -0.72481,-0.033 -1.02691,0.34422 -1.40439,0.34699 -0.66116,0.005 -0.48386,-0.64623 0.1283,-0.72106 1.13796,-0.13912 2.27691,0.29003 2.31562,-1.02647 -0.90801,0.19097 -0.2642,0.76809 -2.03426,0.42056 -1.06787,-0.20983 -1.14234,0.80493 -1.30542,1.32161 -0.41386,1.31239 -0.28797,0.65355 -0.58149,1.15986 0.28976,0.4836 -0.0327,0.19866 0.53348,0.57846 -0.0148,0.69951 -0.26106,0.47108 0.28109,1.03523 0.41977,0.43657 -0.068,0.13983 0.3368,0.32419 0.20769,-0.27761 0.0333,-0.83577 -0.002,-1.24579 -0.0548,-0.63076 -0.27295,-0.78579 0.23496,-0.88261 0.22218,0.43487 -0.31846,0.48163 0.77739,1.15369 0.28377,0.17417 -0.0995,0.24462 0.35735,0.002 -0.0809,0.49701 -0.26777,0.3705 0.10541,0.48986 0.65803,-0.67332 -0.21627,-1.08718 -0.21922,-1.08977 -0.54296,-0.49826 0.16218,-0.056 -0.62021,-0.98606 0.31891,-0.18051 0.98606,-0.5663 1.09683,-0.8803 z m -12.00777,-10.62877 0.0634,-0.0177 1.41172,1.86519 c -0.0596,0.0585 -0.0844,0.0784 -0.0923,0.0854 l -1.38275,-1.93287 z m 21.10797,11.5358 c -0.37273,-0.13402 -0.6287,-0.27609 -0.96773,-0.33188 -0.1477,0.16174 -0.93313,0.96961 -1.13599,0.99509 -0.85463,-0.13777 -0.75396,-0.5789 -0.849,-1.43192 -1.52223,-0.18436 -1.13957,-0.16782 -2.00672,0.31283 l 1.2279,0.6042 c 0.0628,0.0142 0.19696,0.0319 0.27832,0.0485 l -0.53626,0.37658 c 0.33215,0.44524 0.20448,0.4017 0.3731,0.7081 l 0.29575,-0.1545 c 0.18641,-0.0458 0.0633,-0.0322 0.20626,-8e-4 l 1.77283,0.56487 c 0.76881,0.25114 1.28146,1.01923 1.32384,1.81691 1.00707,0.14752 0.4524,0.48225 1.13412,0.53786 l 0.0114,-3.79171 c -0.29781,-0.10299 -0.73429,-0.11256 -1.12777,-0.25418 z m -23.56584,-3.6661 c -0.42548,-0.48619 0.0804,-0.31676 -1.649,-0.47787 -0.0309,0.36933 0.25472,0.76442 0.47877,0.95485 0.46393,0.39393 0.48422,0.007 0.83648,0.56013 0.7081,1.11123 1.4609,1.87771 1.77471,2.6416 0.52714,1.28288 1.42594,1.27341 1.97829,2.21405 l 0.89201,-0.23979 0.09,-1.44757 c -0.35602,-0.26026 -0.49781,-0.50944 -0.80537,-0.81422 -0.42718,-0.42316 -0.58087,-0.0984 -0.38212,-0.87922 L 163.8466,150.988 c -0.14502,-0.12437 -0.0929,-0.0827 -0.27367,-0.1882 -0.93143,-0.54296 -0.5393,-0.55271 -1.00037,-0.97122 -0.12731,-0.11542 -0.22253,-0.1021 -0.45624,-0.36916 z m -31.59075,-19.85298 -0.002,0.001 -0.002,0.001 -0.002,9.8e-4 -0.003,0.002 -5.3e-4,3.5e-4 -0.002,0.001 -0.002,10e-4 -0.002,0.001 -0.002,0.001 -0.002,0.001 -1.8e-4,9e-5 -0.002,0.001 -0.002,0.001 -0.002,10e-4 -0.002,0.001 -0.002,0.001 -0.001,6.3e-4 -0.001,7.1e-4 -0.002,0.001 -0.002,0.001 -0.002,0.001 -0.002,10e-4 -0.002,0.001 -2.7e-4,1.8e-4 -0.002,0.001 -0.003,0.002 -0.003,0.002 -0.003,0.002 -0.003,0.002 -7.2e-4,3.6e-4 -0.002,0.001 -0.003,0.002 -0.003,0.002 -0.003,0.002 -0.003,0.002 -0.002,0.001 -9e-4,6.2e-4 -0.003,0.002 -0.003,0.002 -0.003,0.002 -0.003,0.002 -0.003,0.002 -1.7e-4,8e-5 -0.003,0.002 -0.003,0.002 -0.003,0.002 -0.003,0.002 -0.003,0.002 -0.001,9e-4 -0.002,0.001 -0.003,0.002 -0.003,0.002 -0.003,0.002 -0.003,0.002 -0.003,0.002 -6.3e-4,3.6e-4 -0.003,0.002 -0.004,0.002 -0.004,0.002 -0.004,0.002 -0.004,0.002 -8.9e-4,6.2e-4 -0.003,0.002 -0.004,0.002 -0.004,0.002 -0.004,0.002 -0.004,0.002 -0.002,0.002 -0.001,9.8e-4 -0.004,0.002 -0.004,0.003 -0.004,0.003 -0.004,0.002 -0.004,0.003 0.18641,-0.11364 z m 42.81131,20.06908 c 0.73116,0.10871 0.24953,0.14403 0.71257,-0.36621 0.0668,-0.0736 0.044,0.042 0.22879,-0.24676 -0.0275,-0.0177 -0.0705,-0.0273 -0.0923,-0.0334 -0.0216,-0.006 -0.0659,-0.0233 -0.0921,-0.03 l -0.1814,-0.0388 c -0.53412,-0.10702 -0.1376,0.13768 -0.36353,-0.12142 -0.0273,-0.0314 -0.0708,-0.12758 -0.10702,-0.19517 -0.0157,-0.0291 -0.0599,-0.12821 -0.077,-0.15816 -0.5063,-0.87841 -0.49745,0.081 -1.70139,0.76836 -1.32822,0.75834 -0.64704,0.79017 -1.37391,1.1747 -0.71686,0.37953 -0.47823,-0.0417 -0.90667,0.71096 -0.28538,-0.13357 -0.69325,-0.35378 -0.89021,-0.17863 -0.18552,0.16504 -0.30318,0.68708 -0.24453,0.96433 0.001,0.006 0.22182,0.5081 0.2228,0.50971 0.59348,0.90273 0.0774,-0.35298 0.58266,1.25088 0.35003,0.0532 0.47832,0 0.73242,0.0991 0.26482,0.10362 0.22056,0.34582 0.78427,0.19973 0.66169,-0.17157 0.0708,-0.0461 0.79053,-0.0552 l 0.0834,0.17953 c 0.0128,0.0215 0.029,0.0595 0.0441,0.0811 0.18829,0.26866 -0.18436,0.0112 0.16102,0.16611 0.33196,0.14878 0.83979,-0.38668 0.95673,-0.80072 0.0877,-0.31041 0.0219,-0.34653 0.11176,-0.58722 0.15879,-0.42593 0.0177,-0.002 0.23228,-0.33858 0.2928,-0.45856 0.083,-0.37166 0.19839,-0.97738 l 0.7866,-0.13259 c -0.25052,-0.64176 -0.33036,-0.063 -0.51847,-0.67591 -0.11936,-0.38955 0.0273,-0.29907 -0.34886,-0.69228 0.47868,-0.0696 0.42906,-0.13786 0.26902,-0.47599 z m -25.68628,-19.82536 c 0.012,-0.007 0.0238,-0.0134 0.0357,-0.0194 -0.0119,0.006 -0.0237,0.0126 -0.0357,0.0194 z m 0.0359,-0.0195 c 0.0184,-0.009 0.0366,-0.0172 0.0548,-0.0242 -0.0182,0.007 -0.0364,0.0151 -0.0548,0.0242 z m 0.0554,-0.0245 c 0.0113,-0.004 0.0227,-0.008 0.034,-0.012 -0.0113,0.004 -0.0227,0.008 -0.034,0.012 z m 0.034,-0.012 0.003,-8.9e-4 0.0169,-0.005 0.001,-3.5e-4 0.0137,-0.004 0.003,-8e-4 0.0108,-0.003 0.007,-0.002 0.007,-0.001 0.0114,-0.002 0.002,-3.6e-4 0.0136,-0.003 0.002,-3.6e-4 0.0114,-0.002 0.006,-9.9e-4 c 0.0114,-0.002 0.0226,-0.003 0.0338,-0.005 l 0.001,-9e-5 c 0.0349,-0.004 0.0691,-0.006 0.10272,-0.007 -0.0336,0.001 -0.0678,0.003 -0.10272,0.007 l -0.14413,0.0305 z"
       id="asia"
       style="clip-rule:evenodd;fill:#ffcc29;fill-rule:evenodd;stroke-width:0.00894061;image-rendering:optimizeQuality;shape-rendering:geometricPrecision;text-rendering:geometricPrecision" />
  </g>
</svg>
