<?xml version="1.0" encoding="UTF-8" standalone="no"?>
<svg
   xmlns:dc="http://purl.org/dc/elements/1.1/"
   xmlns:cc="http://creativecommons.org/ns#"
   xmlns:rdf="http://www.w3.org/1999/02/22-rdf-syntax-ns#"
   xmlns:svg="http://www.w3.org/2000/svg"
   xmlns="http://www.w3.org/2000/svg"
   xmlns:sodipodi="http://sodipodi.sourceforge.net/DTD/sodipodi-0.dtd"
   xmlns:inkscape="http://www.inkscape.org/namespaces/inkscape"
   width="41.138424mm"
   height="48.055332mm"
   viewBox="0 0 41.138424 48.055332"
   version="1.1"
   id="svg33"
   inkscape:version="1.0.2 (e86c870879, 2021-01-15, custom)"
   sodipodi:docname="eeuuycanada.svg">
  <defs
     id="defs27" />
  <sodipodi:namedview
     id="base"
     pagecolor="#ffffff"
     bordercolor="#666666"
     borderopacity="1.0"
     inkscape:pageopacity="0.0"
     inkscape:pageshadow="2"
     inkscape:zoom="0.35"
     inkscape:cx="529.17046"
     inkscape:cy="747.9561"
     inkscape:document-units="mm"
     inkscape:current-layer="layer1"
     inkscape:document-rotation="0"
     showgrid="false"
     fit-margin-top="0"
     fit-margin-left="0"
     fit-margin-right="0"
     fit-margin-bottom="0"
     inkscape:window-width="1416"
     inkscape:window-height="1040"
     inkscape:window-x="26"
     inkscape:window-y="0"
     inkscape:window-maximized="0" />
  <metadata
     id="metadata30">
    <rdf:RDF>
      <cc:Work
         rdf:about="">
        <dc:format>image/svg+xml</dc:format>
        <dc:type
           rdf:resource="http://purl.org/dc/dcmitype/StillImage" />
        <dc:title></dc:title>
      </cc:Work>
    </rdf:RDF>
  </metadata>
  <g
     inkscape:label="Capa 1"
     inkscape:groupmode="layer"
     id="layer1"
     transform="translate(34.176351,49.730053)">
    <path
       class="fil0"
       d="m -6.5811357,-17.781053 c -0.8181553,-0.530983 -0.5595034,-2.179095 -0.3949962,-2.946199 -0.023335,-0.01288 -0.066876,-0.05293 -0.074743,-0.02897 l -0.3046066,-0.109969 c 0.076263,-0.161378 0.1399206,-0.28762 0.1949947,-0.387397 0.053286,-0.01198 0.03612,9.84e-4 0.024497,-0.04363 0.2168098,-0.379887 0.2962918,-0.331518 0.5178401,-0.465895 l 0.4733159,-0.327316 c 0.394728,-0.240681 0.1519904,-0.16102 0.7335771,-0.201521 0.018686,1.348512 -0.2893182,1.056154 -0.4457788,1.172203 -1.2971931,0.960758 0.8466757,2.578025 -0.7241,3.338692 z M -21.100686,-42.766124 c -0.216184,-0.482793 0.03263,-0.04077 -0.393208,-0.378814 l -0.282971,-0.255433 c -0.411,-0.421371 -0.167368,-0.318911 -0.917038,-0.329461 l -0.561381,0.97086 c -0.283417,0.423338 -0.232366,0.923655 0.187842,1.104613 0.518556,0.223336 0.668221,-0.10997 1.055082,-0.42763 0.0228,-0.01868 0.05391,-0.04506 0.07743,-0.06303 0.0236,-0.01797 0.05642,-0.04247 0.08073,-0.05963 0.313815,-0.219671 0.514711,-0.23174 0.753604,-0.561559 z m 7.741048,5.710904 c -0.07322,0.508542 -0.163256,1.353608 0.02503,1.742078 0.187663,0.387128 0.835142,0.581765 1.344936,0.502373 1.404659,-0.902555 -0.313279,-2.301224 -1.369881,-2.24454 z m 14.2642962,6.483999 c -0.14921879,0.27394 -0.10684029,0.592494 -0.1069297,0.59464 -0.0514979,2.080122 1.5049729,0.676804 1.5075657,0.675373 0.2557908,-0.141619 0.5117605,-0.135718 0.8155624,-0.29656 0.3182857,-1.47529 -0.048816,-0.819586 -0.4886937,-1.655354 -0.7654057,0.257758 -0.1299071,0.234244 -0.8855675,0.399824 -0.590259,0.129371 -0.4177053,-0.07269 -0.84202661,0.282166 z m -22.8749082,-10.249516 0.712477,0.253109 c -0.146894,0.321594 -0.04184,0.07403 -0.203041,0.273672 -0.234959,0.291374 0.0066,-0.166385 -0.269113,0.307021 0.196604,0.251499 0.148415,0.232902 0.441309,0.416364 0.441934,0.276801 1.511857,0.38382 2.065639,0.327226 1.034607,-0.105857 0.491197,-0.87761 0.360843,-1.35933 -0.1882,-0.69549 0.148861,-1.011898 -0.353691,-1.388477 -0.488515,0.233976 -0.19866,0.5359 -0.416901,0.892094 l -0.09477,-0.193207 c -0.23943,-0.381138 -0.0034,-0.190971 -0.486101,-0.478769 -0.531788,-0.317034 -1.341628,-0.82048 -1.672788,-0.06849 -0.01046,0.02378 -0.02244,0.06428 -0.02906,0.08941 l 0.0043,0.603223 c -0.0028,0.04157 -0.05436,0.306126 -0.05901,0.326243 z m 6.109834,-8.198807 c -0.136523,2.055088 0.379618,0.999292 0.550294,2.121606 -0.484759,-0.250337 -0.419314,-0.07322 -0.945827,-0.363882 -8.94e-4,-5.37e-4 -1.073499,-0.809662 -1.043995,0.3131 0.0194,0.737511 0.08717,0.25293 0.416275,0.747792 l 0.268129,0.565494 c 0.71802,-0.07644 0.63228,-0.406798 1.214224,-0.04908 -0.0186,0.472243 0.05346,-0.0055 -0.174699,0.31614 -0.0152,0.02137 -0.04748,0.05177 -0.0633,0.07456 l -0.197319,0.452126 c 0.0067,0.722402 1.408861,0.185876 1.757992,0.0058 -0.111668,-0.645334 0.101208,-0.198035 -0.420387,-0.570679 0.241664,-0.19571 0.381495,-0.192581 0.351097,-0.693524 -0.06831,-1.123834 -0.132321,-0.0021 -0.426377,-0.696026 0.17917,-0.425305 0.406172,-0.393655 0.534827,-0.777207 l 0.01287,-0.932059 c -0.01958,-0.854186 0.0023,-1.982401 -1.833808,-0.514085 z m 2.342082,7.177611 c -0.119357,-0.271437 -0.328925,-1.730366 -0.908992,-0.737779 -0.230667,0.394459 0.16567,1.245963 0.177561,1.723928 -0.127672,-0.215826 -0.391331,-0.563169 -0.460799,-0.840328 -0.126689,-0.504429 0.01484,-0.768266 -0.197409,-1.076539 -0.376936,0.133662 -0.294682,0.01502 -0.47573,0.517215 -0.421639,1.170504 0.194637,1.452133 0.243364,1.506671 l 0.310418,0.403132 c 0.01028,-0.02334 0.03549,0.06831 0.0608,0.09692 0.757091,0.0152 1.457766,-0.05954 2.084503,0.128209 0.02164,-0.02763 0.04113,-0.07206 0.05302,-0.0911 l 0.163881,-0.260619 c 0.274209,-0.34171 0.382658,-0.345197 0.894776,-0.324991 0.268219,0.445689 -0.04363,0.300136 0.30112,0.646585 0.32222,0.323829 0.21976,0.01609 0.59312,0.3823 0.262765,0.258026 0.0038,0.257669 0.458296,0.486638 l 0.7770284,0.267503 -0.7476134,0.418599 0.01976,0.832103 c -0.360306,0.197587 -0.493343,0.133841 -0.894329,0.364956 0.0827,0.54332 0.378188,0.855974 0.839255,0.567013 0.3831053,-0.240055 0.4044733,-0.668311 1.1190963,-0.216631 0,0 1.1761373,1.288789 2.468413,0.535274 -0.1276719,-0.70747 -0.4692926,-0.141708 -0.9624566,-0.746988 l 0.9263366,0.05454 c -0.019938,-0.387844 -0.069469,-0.526959 -0.1510069,-0.976493 -1.2078765,-0.393387 -1.3462771,-0.329194 -1.4594652,-1.034518 0.5039822,-0.199465 1.2609836,-0.03496 1.237291,-0.873587 -0.5265125,-0.471975 -0.1693352,-0.09271 -0.7074705,-0.268576 -1.4760947,-0.482525 -0.4719748,-0.02056 -2.0618835,-0.141709 -0.3657602,-1.007875 -0.4585642,-0.183908 -0.4548982,-1.341717 -0.08127,0.0295 -0.351008,0.18659 -0.410285,0.198124 -0.244168,0.04738 -1.644178,-0.844083 -1.862954,-0.83711 -1.018336,0.267861 -0.157713,0.416722 -0.972739,0.638986 z m -12.913638,39.0050202 c 0.181315,0.1505599 0.749223,0.6363032 0.946006,0.7165899 0.04873,-1.3426114 -2.519464,-2.0930862 -2.852234,-2.3481618 -0.06848,-0.9057732 -0.08619,-2.4430217 -0.340994,-3.3166981 -0.168263,-0.5765799 -0.404831,-0.4540936 -1.271087,-0.6788605 -1.857859,-0.4821671 -0.144659,-0.7448422 -1.766217,-0.012338 -0.272868,0.123291 -0.582839,0.176577 -0.803225,0.2992422 6.26e-4,1.0852112 0.583733,0.3502931 0.589365,1.330631 -0.658655,-0.1982134 -0.494237,-0.3702307 -1.194108,-0.1063039 0.05257,0.6256639 0.459905,0.7921381 0.98463,0.9218663 -0.02879,0.030666 -0.07814,0.053733 -0.106215,0.068306 -0.02736,0.014305 -0.07322,0.046133 -0.107198,0.062495 -0.03326,0.015825 -0.07269,0.03612 -0.109522,0.052034 -0.03603,0.015557 -0.07448,0.026196 -0.111311,0.040501 -0.04747,0.018507 -0.880203,-0.056594 -0.683956,1.1823063 0.159768,1.0092161 0.666164,0.7409978 1.034518,1.5467255 -0.594819,0.8338013 -1.144935,0.4330832 -1.884592,0.9727384 0.707828,0.6846719 2.487725,-0.6044746 3.096491,-1.0872676 l 0.512744,-0.3406372 c 1.041313,-0.5243668 0.29352,-0.3833734 0.849716,-0.8024198 0.725798,0.3882907 -0.449892,0.1358973 1.197863,0.4979026 0.663482,0.1458214 0.536168,0.4777862 1.047035,0.5691592 0.819675,0.1468943 0.08029,-0.3083616 0.972291,0.4322785 z m -4.772319,-34.3707442 -0.24086,0.28601 c -0.0236,0.01904 -0.07582,0.05042 -0.09709,0.06616 -0.02262,0.01681 -0.07287,0.0405 -0.106661,0.06482 l 0.29352,0.345107 c 0.282165,0.505413 0.275102,1.183826 0.2709,1.747532 l -0.377383,2.182224 c -0.246671,0.871709 -0.760309,0.402685 0.318733,2.236941 0.350293,0.595534 0.137238,1.2178 0.364866,1.575961 0.0043,0.0067 0.772737,0.520433 1.215118,1.138318 0.386235,0.539387 0.718468,0.679218 1.328039,1.00716 -0.07456,-0.02074 -0.14904,-0.04148 -0.22289,-0.06267 -0.610822,-0.174699 -1.546278,-0.51927 -2.174267,-0.522221 -0.02521,1.063575 0.159411,0.721597 -0.267413,1.489595 -0.264017,-0.543768 0.182835,-0.28753 -0.346002,-0.840328 -0.155924,-0.162897 -0.553066,-0.415738 -0.834874,-0.427271 -0.203399,1.666708 0.04756,2.313025 -0.689768,3.781788 -0.705414,1.405285 -0.749134,0.941625 -0.854007,2.416468 -0.0785,1.103003 -1.111318,1.800013 -0.134467,3.672714 0.01824,0.03487 0.186769,0.375505 0.189988,0.383373 0.259278,0.639343 -0.157534,0.202773 0.03263,1.072873 0.157802,0.723117 -0.01189,0.376132 0.05552,0.826828 0.09459,0.634515 0.580425,0.266609 0.514264,1.821113 0.25597,0.226018 0.459101,0.329372 0.704789,0.530088 l 0.885925,0.648016 c 0.248191,0.253019 -0.09879,-0.111579 0.12186,0.158606 1.296478,1.58669 0.106304,1.15924 1.970689,1.535103 0.483598,0.097542 0.502284,0.2342439 0.843368,0.4980813 0.528211,0.4086753 1.125176,0.6499823 1.757903,1.0219117 1.048733,0.6164551 1.069476,0.322309 2.199658,0.6169021 0.872693,0.2276279 1.463757,-0.2407706 2.476281,-0.087082 0.378009,0.4564181 1.189906,1.1243711 1.368986,1.4797603 0.396695,0.7872207 -0.03013,1.3604926 1.482085,1.5695241 0.302282,-0.4445271 0.675016,-1.0543661 1.520619,-0.3803335 0.524367,0.4179735 0.488962,0.9703244 0.90774,1.4381865 0.508721,0.5687122 0.245867,-0.010908 0.43657,0.7013908 0.28297,1.0571378 0.955125,1.4818167 2.169439,1.5402883 -0.05499,-1.4954958 -0.855438,-1.6130648 1.251685,-2.8201366 0.575239,-0.3294615 0.546719,-0.5123863 0.829421,-0.7115831 0.474567,-0.3342 1.265007,-0.3495779 1.770241,-0.2827915 l 0.5805134,0.01359 c 0.6728703,-0.037908 0.508989,0.2205648 1.1798029,0.3239183 0.1755936,0.02709 1.2557087,0.028968 1.2649175,0.028968 0.00957,-0.024765 0.0042,-0.096827 0.00367,-0.079572 l -0.00438,-0.1572653 c -0.019312,-0.2303101 -0.026017,0.091999 -0.037372,-0.3504719 l 0.00644,-0.5947294 c 3.3009626,-0.565583 2.7309093,0.04524 3.6350732,0.169961 1.138229,0.1571759 0.354227,-0.6934337 1.6162835,0.1643284 0.6108224,0.4151126 0.3343788,-0.1081813 0.5286582,0.4598156 0.1988392,0.3686214 0.1896304,1.1637992 0.4449742,1.5924121 0.31006035,0.5204329 -0.019312,0.012874 0.37926067,0.4785014 l 0.97157609,1.1238347 c 0.41269856,0.32517 -0.2359427,0.2567743 0.66768475,0.2422011 C 1.8180309,-3.2121502 0.69687842,-5.0738534 0.0722874,-5.9754245 -1.1034028,-7.6727099 -0.47353684,-8.6286399 0.51949672,-9.7319112 1.051463,-10.323154 0.71037874,-9.9870762 0.97716654,-10.533795 c 0.35181296,-0.720881 0.35118716,-0.190256 0.76907126,-0.600093 0.1764877,-0.17309 0.104784,-0.357535 0.5185554,-0.735812 0.5525297,-0.504877 0.3024608,-0.09084 0.603223,-0.832461 0.2084056,-0.513638 0.2047399,-0.462319 0.047296,-0.956913 -0.1579806,-0.496562 -0.2467609,-0.51042 -0.4812731,-0.921062 -0.1921337,-0.336524 -0.7112255,-1.593395 -0.5381353,-1.934033 0.3470745,0.411537 0.4675045,1.004657 0.8338013,1.424955 l 0.5943718,-1.980882 c 0.2247669,-0.829778 0.095933,-1.055707 0.8936139,-1.636131 l 0.4869057,-0.479396 c 0.00161,-0.0054 0.00501,-0.03809 0.00608,-0.04292 0.068843,-0.34162 0.9258895,-0.513101 1.1652297,-0.664913 -0.2141276,-0.647479 -0.3763103,0.06813 -0.6288825,-0.713014 -0.4191358,-1.295405 0.8051019,-2.142527 1.7133785,-2.698276 0.023603,-1.027812 -0.2049188,-0.677787 -0.5657618,-1.212078 -0.1519904,-0.225125 -0.3210573,-0.974884 -0.4758193,-1.30676 -0.5795303,-0.01252 -0.2606188,-0.02763 -0.6599064,0.126331 -0.6548997,0.252394 -0.2385355,-0.111668 -0.5513674,0.414755 -0.2794835,0.470366 -0.093787,1.083334 -0.1330363,1.691474 -1.1123907,0.981858 -1.0204812,0.588829 -2.449906,0.991335 -1.52133417,0.428523 -0.8869085,1.609667 -1.39258938,2.089242 -0.50532328,0.213501 -0.75467689,0.20769 -1.4759159,0.176577 l -0.0224409,0.996699 c -0.24166472,0.150292 -0.33652462,0.162361 -0.59025912,0.35977 -0.2419329,0.1882 -0.3193586,0.288692 -0.6106436,0.493879 -0.5958917,0.420388 -0.9134622,0.59312 -1.7487834,0.310686 0.039607,-0.512743 0.9994708,-1.970421 0.043809,-2.126255 -0.02557,-0.0042 -0.069379,-0.0018 -0.096112,-5.37e-4 l -0.1964252,0.05543 c -0.1619145,0.05579 0.1003136,0.0658 -0.3805124,0.202415 0.020206,-0.944128 0.4752828,-0.455434 0.2155581,-1.300233 -0.1713021,-0.557 -0.4652693,-0.456507 -1.0529356,-0.635856 0.120877,-0.313994 0.017702,-0.03397 0.178544,-0.239519 0.1772922,-0.226823 0.133215,-0.04792 0.2778741,-0.35369 -0.439878,-0.05543 -0.6559725,-0.135719 -0.8898589,-0.167458 0.1389371,-0.422175 0.2224424,-0.708364 0.7789953,-1.048286 0.5664771,-0.345913 0.4405933,-0.07537 0.875107,-0.253735 0.5585199,-0.229058 0.2700064,-0.1595 0.4491762,-0.750832 0.6749266,-0.02495 1.0693864,0.467236 1.9512881,-0.05204 0.84900039,-0.499601 0.4790379,-0.981768 1.10586411,-1.187223 0.20143195,0.451322 -0.22306822,0.65928 -0.27519197,1.190889 l 0.37863483,0.41404 c 0.74412697,-0.739299 -0.26410562,-0.875733 1.07001221,-1.194019 0.0311133,-0.687801 0.1333939,-0.491555 0.18837865,-0.987133 -0.92955522,-0.448818 -1.80314223,-0.185428 -1.99938863,-0.381138 -0.5340227,-0.532324 0.12946005,-0.911763 0.26347979,-1.464919 -0.45570289,-0.378813 -0.74269649,-0.51936 -0.89602799,-0.993659 1.2170853,-0.02584 1.35673762,-0.456418 2.10122222,-1.101126 0.25292986,-0.219134 0.41681124,-0.331786 0.62208764,-0.468666 -0.43272552,-3.306774 -2.24981516,-0.457313 -3.10918656,-1.744403 0.1963358,-0.128834 -0.052571,-0.01788 0.3131896,-0.10237 0.5804244,-0.13402 0.7613823,0.07743 0.7369745,-0.678503 l -1.895767,-0.01878 c -0.4731371,-0.612968 -0.3611112,-0.857583 -1.1576302,-1.242655 -0.2733144,-0.131964 -0.6042958,-0.314173 -0.8042078,-0.450965 l -0.243274,-0.196961 c -0.309971,-0.267503 0.1476988,-0.208674 -0.4349607,-0.305859 -0.2379991,0.502373 0.1631661,0.520344 0.035673,1.184989 -0.1409934,0.73456 -0.4087647,0.460173 -1.1911575,0.464733 -0.2899439,-1.19679 -0.2548967,-0.989994 -1.4085037,-1.366662 -0.6911985,-0.225661 -1.5311688,-0.528569 -2.2879019,-0.481094 -0.06089,0.714086 0.129281,1.05821 0.473584,1.592501 0.5916895,0.918559 0.267503,0.650787 0.2597247,1.573905 0.1621826,0.105678 0.3351834,0.16862 0.5273172,0.289676 1.5780176,0.994732 -0.091105,1.892906 0.030666,2.769086 0.053197,0.382837 0.611806,1.075823 0.7231166,1.524374 0.176577,0.711404 0.132321,0.307825 -0.1262414,0.534559 -0.2300419,0.241933 -0.4248578,0.267503 -0.7647798,0.06759 -0.7924063,-0.466074 -0.8954023,-1.649453 -1.2743053,-2.328224 -1.117576,-0.0135 -0.682884,0.627273 -2.004037,-0.274119 -0.79947,-0.545378 -1.110514,-0.621373 -2.303817,-0.56612 -0.22423,-0.378009 -0.09808,-0.588292 -0.310865,-0.867328 -0.255791,-0.335363 -0.329193,-0.167726 -0.753336,-0.426915 -0.01323,-1.267778 0.588024,-2.567832 1.646414,-3.29828 0.587487,-0.405725 0.57801,-0.19866 0.724457,-1.086374 -0.258205,-0.137685 -0.551188,-0.223962 -0.739388,-0.340011 0.620836,-0.302103 0.460173,-3.58e-4 0.474389,-0.90622 0.958433,-0.08538 0.819943,0.07751 1.285838,-0.622535 l -0.431116,-0.88208 c -0.217436,-0.694328 0.08243,-0.53304 -0.784807,-0.729107 -0.01886,0.03397 -0.0346,0.05311 -0.03898,0.10988 l -0.06017,0.209657 c -0.0046,0.02637 -0.01216,0.07152 -0.016,0.100493 -0.0726,0.549668 0.129192,1.09281 -0.301567,1.329379 -0.543678,-0.33572 -0.103711,-0.453021 -0.4169,-1.077791 -0.773989,-0.06777 -0.234334,-0.269827 -0.555838,0.413772 l -0.250874,-0.6127 c -0.01609,-0.02816 -0.04068,-0.0591 -0.05749,-0.08664 -0.286636,-0.469024 -0.143586,0.0058 -0.303623,-0.6954 -0.137059,-0.601525 -0.26491,-1.047303 -0.935635,-0.719898 -0.546807,1.29764 0.485297,1.348154 0.615293,2.272882 l -0.221101,0.337508 c -0.479485,-0.06384 -0.219313,-0.0591 -0.653201,-0.265089 -0.02342,0.02772 -0.04783,0.04283 -0.05892,0.09128 l -0.294235,0.284669 c -0.690305,0.328299 -1.479939,-0.358518 -2.004127,-0.329461 -0.379708,0.02092 -1.843554,0.569964 -2.605026,0.109612 0.06428,-0.846587 0.204114,5.36e-4 0.671619,-0.833891 -0.707381,-0.610823 -0.776492,-0.270096 -1.464115,-0.650161 -0.835678,-0.461783 -0.298616,-0.633442 -1.594736,-0.616902 -0.05516,-0.508095 0.04774,-0.469561 -0.154673,-0.8009 l -2.362556,0.01028 c -0.834338,-0.876806 -0.511939,-1.557276 -1.678689,-2.117763 -1.235056,-0.593299 -1.11552,-1.712574 -2.226927,-1.528218 -0.829331,2.5622 -0.324991,2.31973 -0.08637,3.892026 0.253913,1.672431 -1.308906,2.638821 -0.353244,3.896229 z m 21.3062784,13.977749 c 0.075995,0.178544 0.1343773,0.340101 0.2302207,0.481631 -0.1245427,-0.105589 -0.1976769,-0.247923 -0.2323665,-0.480379 l 0.00224,-0.0012 z"
       id="eeuu"
       style="clip-rule:evenodd;fill:#ffcc29;fill-rule:evenodd;stroke-width:0.00894061;image-rendering:optimizeQuality;shape-rendering:geometricPrecision;text-rendering:geometricPrecision" />
  </g>
</svg>
