<?xml version="1.0" encoding="UTF-8" standalone="no"?>
<svg
   xmlns:dc="http://purl.org/dc/elements/1.1/"
   xmlns:cc="http://creativecommons.org/ns#"
   xmlns:rdf="http://www.w3.org/1999/02/22-rdf-syntax-ns#"
   xmlns:svg="http://www.w3.org/2000/svg"
   xmlns="http://www.w3.org/2000/svg"
   xmlns:sodipodi="http://sodipodi.sourceforge.net/DTD/sodipodi-0.dtd"
   xmlns:inkscape="http://www.inkscape.org/namespaces/inkscape"
   version="1.1"
   id="Capa_1"
   x="0px"
   y="0px"
   width="963px"
   height="963px"
   viewBox="0 0 963 963"
   style="enable-background:new 0 0 963 963;"
   xml:space="preserve"
   sodipodi:docname="right.svg"
   inkscape:version="1.0.2 (e86c870879, 2021-01-15, custom)"><metadata
   id="metadata41"><rdf:RDF><cc:Work
       rdf:about=""><dc:format>image/svg+xml</dc:format><dc:type
         rdf:resource="http://purl.org/dc/dcmitype/StillImage" /></cc:Work></rdf:RDF></metadata><defs
   id="defs39" /><sodipodi:namedview
   pagecolor="#ffffff"
   bordercolor="#666666"
   borderopacity="1"
   objecttolerance="10"
   gridtolerance="10"
   guidetolerance="10"
   inkscape:pageopacity="0"
   inkscape:pageshadow="2"
   inkscape:window-width="1920"
   inkscape:window-height="1017"
   id="namedview37"
   showgrid="false"
   inkscape:zoom="0.62413371"
   inkscape:cx="198.63896"
   inkscape:cy="543.44491"
   inkscape:window-x="-8"
   inkscape:window-y="-8"
   inkscape:window-maximized="1"
   inkscape:current-layer="Capa_1"
   inkscape:document-rotation="0" />
<rect
   style="fill:#e5d5e7;fill-opacity:1;stroke-width:2.231"
   id="rect880"
   width="482.26846"
   height="716.19269"
   x="265.96866"
   y="115.35989" /><g
   id="g4"
   style="fill:#905d93;fill-opacity:1">
	<path
   d="M0,481.5C0,747.4,215.6,963,481.5,963C747.4,963,963,747.4,963,481.5C963,215.6,747.4,0,481.5,0C215.5,0,0,215.6,0,481.5z    M691.601,543.3L478.2,776.601C460.4,796,436.101,805.8,411.8,805.8c-21.699,0-43.5-7.8-60.699-23.6   c-36.7-33.6-39.2-90.5-5.601-127.2l157.8-172.399L340.601,305.3c-33.601-36.6-31.101-93.6,5.5-127.2   c36.6-33.6,93.6-31.1,127.199,5.5l218.2,238.1C723,456.101,723.101,508.9,691.601,543.3z"
   id="path2"
   style="fill:#905d93;fill-opacity:1" />
</g>















</svg>
